<svg width="40" height="40" viewBox="0 0 40 40" fill="none" xmlns="http://www.w3.org/2000/svg">
<path d="M11.3783 10.2917C11.0783 10.7665 10.678 11.17 10.2056 11.4737C9.73309 11.7775 9.19988 11.9742 8.64333 12.05C8.01 12.14 7.38167 12.2367 6.75333 12.3417C4.99833 12.6333 3.75 14.1783 3.75 15.9567V30C3.75 30.9946 4.14509 31.9484 4.84835 32.6517C5.55161 33.3549 6.50544 33.75 7.5 33.75H32.5C33.4946 33.75 34.4484 33.3549 35.1516 32.6517C35.8549 31.9484 36.25 30.9946 36.25 30V15.9567C36.25 14.1783 35 12.6333 33.2467 12.3417C32.6179 12.2369 31.9878 12.1397 31.3567 12.05C30.8004 11.9739 30.2675 11.7771 29.7954 11.4734C29.3232 11.1697 28.9232 10.7663 28.6233 10.2917L27.2533 8.09834C26.9456 7.5985 26.522 7.18016 26.0184 6.87873C25.5148 6.5773 24.9459 6.40166 24.36 6.36667C21.4554 6.21066 18.5446 6.21066 15.64 6.36667C15.0541 6.40166 14.4852 6.5773 13.9816 6.87873C13.478 7.18016 13.0544 7.5985 12.7467 8.09834L11.3783 10.2917Z" stroke="white" stroke-width="3" stroke-linecap="round" stroke-linejoin="round"/>
<path d="M27.5 21.25C27.5 23.2391 26.7098 25.1468 25.3033 26.5533C23.8968 27.9598 21.9891 28.75 20 28.75C18.0109 28.75 16.1032 27.9598 14.6967 26.5533C13.2902 25.1468 12.5 23.2391 12.5 21.25C12.5 19.2609 13.2902 17.3532 14.6967 15.9467C16.1032 14.5402 18.0109 13.75 20 13.75C21.9891 13.75 23.8968 14.5402 25.3033 15.9467C26.7098 17.3532 27.5 19.2609 27.5 21.25ZM31.25 17.5H31.2633V17.5133H31.25V17.5Z" stroke="white" stroke-width="2" stroke-linecap="round" stroke-linejoin="round"/>
</svg>
