<svg width="40" height="40" viewBox="0 0 40 40" fill="none" xmlns="http://www.w3.org/2000/svg">
<path d="M11.3783 10.292C11.0783 10.7669 10.678 11.1703 10.2056 11.4741C9.73309 11.7778 9.19988 11.9745 8.64333 12.0503C8.01 12.1403 7.38167 12.237 6.75333 12.342C4.99833 12.6337 3.75 14.1787 3.75 15.957V30.0003C3.75 30.9949 4.14509 31.9487 4.84835 32.652C5.55161 33.3553 6.50544 33.7503 7.5 33.7503H32.5C33.4946 33.7503 34.4484 33.3553 35.1516 32.652C35.8549 31.9487 36.25 30.9949 36.25 30.0003V15.957C36.25 14.1787 35 12.6337 33.2467 12.342C32.6179 12.2372 31.9878 12.14 31.3567 12.0503C30.8004 11.9743 30.2675 11.7775 29.7954 11.4737C29.3232 11.17 28.9232 10.7667 28.6233 10.292L27.2533 8.09868C26.9456 7.59884 26.522 7.1805 26.0184 6.87907C25.5148 6.57764 24.9459 6.402 24.36 6.36701C21.4554 6.211 18.5446 6.211 15.64 6.36701C15.0541 6.402 14.4852 6.57764 13.9816 6.87907C13.478 7.1805 13.0544 7.59884 12.7467 8.09868L11.3783 10.292Z" stroke="white" stroke-width="3" stroke-linecap="round" stroke-linejoin="round"/>
<path d="M27.5 21.25C27.5 23.2391 26.7098 25.1468 25.3033 26.5533C23.8968 27.9598 21.9891 28.75 20 28.75C18.0109 28.75 16.1032 27.9598 14.6967 26.5533C13.2902 25.1468 12.5 23.2391 12.5 21.25C12.5 19.2609 13.2902 17.3532 14.6967 15.9467C16.1032 14.5402 18.0109 13.75 20 13.75C21.9891 13.75 23.8968 14.5402 25.3033 15.9467C26.7098 17.3532 27.5 19.2609 27.5 21.25ZM31.25 17.5H31.2633V17.5133H31.25V17.5Z" stroke="white" stroke-width="2" stroke-linecap="round" stroke-linejoin="round"/>
<path d="M3 5L38 36" stroke="white" stroke-width="3" stroke-linecap="round"/>
</svg>
