<svg preserveAspectRatio="none" width="100%" height="100%" overflow="visible" style="display: block;" viewBox="0 0 64 64" fill="none" xmlns="http://www.w3.org/2000/svg">
<g id="Right button">
<circle id="Ellipse 2" cx="32" cy="32" r="32" fill="var(--fill-0, black)"/>
<circle id="Ellipse 3" cx="32" cy="32" r="29.0909" fill="var(--fill-0, #232323)" stroke="url(#paint0_linear_666_50)" stroke-opacity="0.6" stroke-width="2"/>
<circle id="Ellipse 4" cx="32.0001" cy="32.0001" r="29.0909" fill="var(--fill-0, #232323)" stroke="url(#paint1_linear_666_50)" stroke-opacity="0.6" stroke-width="2"/>
<g id="Return icon">
<path id="Vector" d="M41 32C41 29.6131 40.0518 27.3239 38.364 25.636C36.6761 23.9482 34.3869 23 32 23C29.484 23.0095 27.069 23.9912 25.26 25.74L23.5 27.5" stroke="var(--stroke-0, white)" stroke-width="3" stroke-linecap="round" stroke-linejoin="round"/>
<path id="Vector_2" d="M23 23V28H28" stroke="var(--stroke-0, white)" stroke-width="2" stroke-linecap="round" stroke-linejoin="round"/>
<path id="Vector_3" d="M23 32C23 34.3869 23.9482 36.6761 25.636 38.364C27.3239 40.0518 29.6131 41 32 41C34.516 40.9905 36.931 40.0088 38.74 38.26L40.5 36.5" stroke="var(--stroke-0, white)" stroke-width="3" stroke-linecap="round" stroke-linejoin="round"/>
<path id="Vector_4" d="M36 36H41V41" stroke="var(--stroke-0, white)" stroke-width="2" stroke-linecap="round" stroke-linejoin="round"/>
</g>
</g>
<defs>
<linearGradient id="paint0_linear_666_50" x1="32" y1="2.90909" x2="32" y2="61.0909" gradientUnits="userSpaceOnUse">
<stop stop-color="#858484"/>
<stop offset="1"/>
</linearGradient>
<linearGradient id="paint1_linear_666_50" x1="32.0001" y1="2.90918" x2="32.0001" y2="61.091" gradientUnits="userSpaceOnUse">
<stop stop-color="#858484"/>
<stop offset="1"/>
</linearGradient>
</defs>
</svg>
